<svg width="16" height="16" viewBox="0 0 16 16" fill="none" xmlns="http://www.w3.org/2000/svg">
<path fill-rule="evenodd" clip-rule="evenodd" d="M6.33335 3.43583C6.33335 4.22883 5.73639 4.87167 5.00002 4.87167C4.26365 4.87167 3.66669 4.22883 3.66669 3.43583C3.66669 2.64285 4.26365 2 5.00002 2C5.73639 2 6.33335 2.64285 6.33335 3.43583ZM5.00002 9.53833C5.73639 9.53833 6.33335 8.8955 6.33335 8.1025C6.33335 7.3095 5.73639 6.66667 5.00002 6.66667C4.26365 6.66667 3.66669 7.3095 3.66669 8.1025C3.66669 8.8955 4.26365 9.53833 5.00002 9.53833ZM5.00002 14.205C5.73639 14.205 6.33335 13.5622 6.33335 12.7692C6.33335 11.9762 5.73639 11.3333 5.00002 11.3333C4.26365 11.3333 3.66669 11.9762 3.66669 12.7692C3.66669 13.5622 4.26365 14.205 5.00002 14.205Z" fill="#F2F2F3"/>
<path fill-rule="evenodd" clip-rule="evenodd" d="M12.3334 3.43583C12.3334 4.22883 11.7364 4.87167 11 4.87167C10.2637 4.87167 9.66669 4.22883 9.66669 3.43583C9.66669 2.64285 10.2637 2 11 2C11.7364 2 12.3334 2.64285 12.3334 3.43583ZM11 9.53833C11.7364 9.53833 12.3334 8.8955 12.3334 8.1025C12.3334 7.3095 11.7364 6.66667 11 6.66667C10.2637 6.66667 9.66669 7.3095 9.66669 8.1025C9.66669 8.8955 10.2637 9.53833 11 9.53833ZM11 14.205C11.7364 14.205 12.3334 13.5622 12.3334 12.7692C12.3334 11.9762 11.7364 11.3333 11 11.3333C10.2637 11.3333 9.66669 11.9762 9.66669 12.7692C9.66669 13.5622 10.2637 14.205 11 14.205Z" fill="#F2F2F3"/>
</svg>
